g ____01
v 4.37902e-17 -0.2 3.1
vn -0.894427 -0 -0.447214
vt 1 1
v 1.55 -0.2 -6.66134e-16
vn -0.894427 -0 -0.447214
vt 0 1
v 1.55 -0.4 -6.41154e-16
vn -0.894427 -0 -0.447214
vt 0 0
v 4.37902e-17 -0.4 3.1
vn -0.894427 -0 -0.447214
vt 1 0
v 4.37902e-17 -0.2 3.1
vn 0.894427 -0 -0.447214
vt 1 1
v 4.37902e-17 -0.4 3.1
vn 0.894427 -0 -0.447214
vt 1 0
v -1.55 -0.4 -4.69069e-16
vn 0.894427 -0 -0.447214
vt 0 0
v -1.55 -0.2 -5.1209e-16
vn 0.894427 -0 -0.447214
vt 0 1
v -2 -0.4 0
vn -5.55112e-17 -0 -1
vt 0 0
v -2 -0.2 0
vn -5.55112e-17 -0 -1
vt 0 1
v -1.55 -0.2 -5.1209e-16
vn -5.55112e-17 -0 -1
vt 0.999985 1
v -1.55 -0.4 -4.69069e-16
vn -5.55112e-17 -0 -1
vt 1 0
v -5.55112e-17 -0.4 4
vn -0.894427 -0 0.447214
vt 0 0
v -5.55112e-17 -0.2 4
vn -0.894427 -0 0.447214
vt 0 1
v -2 -0.2 0
vn -0.894427 -0 0.447214
vt 1 1
v -2 -0.4 0
vn -0.894427 -0 0.447214
vt 1 0
v 2 -0.4 -6.66134e-16
vn 0 -1 0
vt 1 0
v -5.55112e-17 -0.4 4
vn 0 -1 0
vt 0.499992 1
v 4.37902e-17 -0.4 3.1
vn 0 -1 0
vt 0.499992 0.77499
v -2 -0.4 0
vn 0 -1 0
vt 0 0
v -1.55 -0.4 -4.69069e-16
vn 0 -1 0
vt 0.11249 0
v 1.55 -0.4 -6.41154e-16
vn 0 -1 0
vt 0.887495 0
v 2 -0.4 -6.66134e-16
vn 0.894427 0 0.447214
vt 1 0
v 2 -0.2 -6.66134e-16
vn 0.894427 0 0.447214
vt 1 1
v -5.55112e-17 -0.2 4
vn 0.894427 0 0.447214
vt 0 1
v -5.55112e-17 -0.4 4
vn 0.894427 0 0.447214
vt 0 0
v -2 -0.2 0
vn -0 1 -0
vt 0 0
v -5.55112e-17 -0.2 4
vn -0 1 -0
vt 0.499992 1
v 4.37902e-17 -0.2 3.1
vn -0 1 -0
vt 0.499992 0.77499
v 2 -0.2 -6.66134e-16
vn -0 1 -0
vt 1 0
v 1.55 -0.2 -6.66134e-16
vn -0 1 -0
vt 0.887495 0
v -1.55 -0.2 -5.1209e-16
vn -0 1 -0
vt 0.11249 0
v 2 -0.4 -6.66134e-16
vn -5.55112e-17 -0 -1
vt 1 0
v 1.55 -0.4 -6.41154e-16
vn -5.55112e-17 -0 -1
vt 0 0
v 1.55 -0.2 -6.66134e-16
vn -5.55112e-17 -0 -1
vt 0 1
v 2 -0.2 -6.66134e-16
vn -5.55112e-17 -0 -1
vt 1 1
f 1/1/1 2/2/2 3/3/3
f 3/3/3 4/4/4 1/1/1
f 5/5/5 6/6/6 7/7/7
f 7/7/7 8/8/8 5/5/5
f 9/9/9 10/10/10 11/11/11
f 11/11/11 12/12/12 9/9/9
f 13/13/13 14/14/14 15/15/15
f 15/15/15 16/16/16 13/13/13
f 17/17/17 18/18/18 19/19/19
f 20/20/20 21/21/21 19/19/19
f 19/19/19 18/18/18 20/20/20
f 19/19/19 22/22/22 17/17/17
f 23/23/23 24/24/24 25/25/25
f 25/25/25 26/26/26 23/23/23
f 27/27/27 28/28/28 29/29/29
f 30/30/30 31/31/31 29/29/29
f 29/29/29 28/28/28 30/30/30
f 29/29/29 32/32/32 27/27/27
f 33/33/33 34/34/34 35/35/35
f 35/35/35 36/36/36 33/33/33
